refGRF
version=1
nRows=12
nColumns=19
inDegrees=no
endheader
time	ground_force_r_vx	ground_force_r_vy	ground_force_r_vz	ground_force_r_px	ground_force_r_py	ground_force_r_pz	ground_torque_r_x	ground_torque_r_y	ground_torque_r_z	ground_force_l_vx	ground_force_l_vy	ground_force_l_vz	ground_force_l_px	ground_force_l_py	ground_force_l_pz	ground_torque_l_x	ground_torque_l_y	ground_torque_l_z
      0.75400000	      0.00000000	      0.00000000	      0.00000000	      0.00000000	      0.00000000	      0.00000000	      0.00000000	      0.00000000	      0.00000000	    102.77577222	    159.75430025	    -23.56635263	     -0.35476397	      0.00000000	      0.14461659	     -0.11352978	     -0.15147806	      0.03195448
      0.75500000	      0.00000000	      0.00000000	      0.00000000	      0.00000000	      0.00000000	      0.00000000	      0.00000000	      0.00000000	      0.00000000	     97.03677142	    142.35140111	    -23.50700322	     -0.35486827	      0.00000000	      0.14504593	     -0.12601409	     -0.14747499	      0.03899090
      0.75600000	      0.00000000	      0.00000000	      0.00000000	      0.00000000	      0.00000000	      0.00000000	      0.00000000	      0.00000000	      0.00000000	     91.45596298	    125.94281315	    -23.35756276	     -0.35508750	      0.00000000	      0.14565221	     -0.15121941	     -0.16265362	      0.04951987
      0.75700000	      0.00000000	      0.00000000	      0.00000000	      0.00000000	      0.00000000	      0.00000000	      0.00000000	      0.00000000	      0.00000000	     85.80850263	    110.60923027	    -23.05313324	     -0.35536413	      0.00000000	      0.14644997	     -0.18734204	     -0.19512408	      0.06333332
      0.75800000	      0.00000000	      0.00000000	      0.00000000	      0.00000000	      0.00000000	      0.00000000	      0.00000000	      0.00000000	      0.00000000	     79.91204797	     96.42078528	    -22.54088973	     -0.35560320	      0.00000000	      0.14746805	     -0.23119498	     -0.24129887	      0.07978380
      0.75900000	      0.00000000	      0.00000000	      0.00000000	      0.00000000	      0.00000000	      0.00000000	      0.00000000	      0.00000000	      0.00000000	     73.65687736	     83.42809177	    -21.78729351	     -0.35570248	      0.00000000	      0.14877154	     -0.27904865	     -0.29673337	      0.09802088
      0.76000000	      0.00000000	      0.00000000	      0.00000000	      0.00000000	      0.00000000	      0.00000000	      0.00000000	      0.00000000	      0.00000000	     67.00130933	     71.64742668	    -20.77306579	     -0.35566061	      0.00000000	      0.15056092	     -0.32710792	     -0.35690330	      0.11707820
      0.76100000	      0.00000000	      0.00000000	      0.00000000	      0.00000000	      0.00000000	      0.00000000	      0.00000000	      0.00000000	      0.00000000	     59.94071510	     61.01708787	    -19.47906755	     -0.35584033	      0.00000000	      0.15338113	     -0.37069069	     -0.41593393	      0.13536826
      0.76200000	      0.00000000	      0.00000000	      0.00000000	      0.00000000	      0.00000000	      0.00000000	      0.00000000	      0.00000000	      0.00000000	     52.51033176	     51.40298690	    -17.89204062	     -0.35693563	      0.00000000	      0.15803128	     -0.40438153	     -0.46634355	      0.15070163
      0.76300000	      0.00000000	      0.00000000	      0.00000000	      0.00000000	      0.00000000	      0.00000000	      0.00000000	      0.00000000	      0.00000000	     44.81421485	     42.66728292	    -16.02480529	     -0.35963888	      0.00000000	      0.16519406	     -0.42355503	     -0.50114306	      0.16099974
      0.76400000	      0.00000000	      0.00000000	      0.00000000	      0.00000000	      0.00000000	      0.00000000	      0.00000000	      0.00000000	      0.00000000	     37.02833172	     34.71277985	    -13.92454461	     -0.36440848	      0.00000000	      0.17519760	     -0.42543002	     -0.51548003	      0.16482328
      0.76500000	      0.00000000	      0.00000000	      0.00000000	      0.00000000	      0.00000000	      0.00000000	      0.00000000	      0.00000000	      0.00000000	     29.37975298	     27.49410070	    -11.66885274	     -0.37137776	      0.00000000	      0.18794707	     -0.40941185	     -0.50730466	      0.16158883
